<svg width="20" height="16" viewBox="0 0 20 16" fill="none" xmlns="http://www.w3.org/2000/svg">
<path d="M16.1408 2.35249C14.5111 0.72279 12.2015 -0.217038 9.662 0.0429141C5.99267 0.412847 2.97322 3.3923 2.5633 7.06163C2.0134 11.9107 5.76271 16 10.4918 16C13.6813 16 16.4208 14.1303 17.7005 11.4408C18.0205 10.771 17.5406 10.0011 16.8007 10.0011C16.4308 10.0011 16.0808 10.2011 15.9209 10.531C14.7911 12.9606 12.0816 14.5003 9.1221 13.8404C6.9025 13.3505 5.11283 11.5408 4.64292 9.32122C3.80307 5.44193 6.75253 2.00256 10.4918 2.00256C12.1515 2.00256 13.6313 2.69243 14.7111 3.78223L13.2014 5.29196C12.5715 5.92184 13.0114 7.00164 13.9012 7.00164H17.4906C18.0405 7.00164 18.4904 6.55173 18.4904 6.00183V2.41248C18.4904 1.52264 17.4106 1.07273 16.7807 1.70261L16.1408 2.35249Z" fill="white"/>
</svg>
