<svg width="20" height="16" viewBox="0 0 20 16" fill="none" xmlns="http://www.w3.org/2000/svg">
<path d="M4.84323 13.6569C5.73216 14.5458 7.18678 14.5458 8.07571 13.6569L16.1569 5.57565C17.0459 4.68671 17.0459 3.23209 16.1569 2.34316C15.268 1.45422 13.8134 1.45422 12.9244 2.34316L4.84323 10.4244C3.95429 11.3133 3.95429 12.7679 4.84323 13.6569Z" fill="white"/>
<path d="M16.1569 13.6569C17.0459 12.7679 17.0459 11.3133 16.1569 10.4244L8.0757 2.34315C7.18677 1.45422 5.73215 1.45422 4.84321 2.34315C3.95428 3.23209 3.95428 4.68671 4.84321 5.57564L12.9244 13.6569C13.8134 14.5458 15.268 14.5458 16.1569 13.6569Z" fill="white"/>
</svg>
