<?xml version="1.0" encoding="utf-8"?>
<!-- Generator: Adobe Illustrator 26.0.1, SVG Export Plug-In . SVG Version: 6.00 Build 0)  -->
<svg version="1.1" id="Layer_1" xmlns:sketch="http://www.bohemiancoding.com/sketch/ns"
	 xmlns="http://www.w3.org/2000/svg" xmlns:xlink="http://www.w3.org/1999/xlink" x="0px" y="0px" viewBox="0 0 640 512"
	 style="enable-background:new 0 0 640 512;" xml:space="preserve">
<style type="text/css">
	.st0{fill:#FFFFFF;stroke:#FFFFFF;stroke-miterlimit:10;}
	.st1{fill:#FFFFFF;stroke:#FFFFFF;stroke-width:48;stroke-linecap:round;stroke-linejoin:round;stroke-miterlimit:10;}
</style>
<g id="SVGRepo_bgCarrier">
</g>
<g id="SVGRepo_tracerCarrier">
</g>
<g id="SVGRepo_bgCarrier_00000178193807565637966440000001937542568244836233_">
</g>
<g id="SVGRepo_tracerCarrier_00000034768737761375045780000009132150504217121708_">
</g>
<g id="SVGRepo_iconCarrier_00000009579285236974250690000010906490624024505010_">
	<g>
		<path class="st0" d="M166.4,512C109,512,64,478.3,64,435.2s45-76.8,102.4-76.8c18.8,0,36.2,3.6,51.2,10V179.6c0-0.3,0-0.6,0-0.9
			V76.8c0-12.5,9-23.2,21.4-25.3L546.2,0.3c7.4-1.2,15,0.9,20.8,5.7c5.8,4.9,9,12,9,19.5v102c0,0.3,0,0.6,0,0.9V384
			c0,43.1-45,76.8-102.4,76.8S371.2,427.1,371.2,384s45-76.8,102.4-76.8c18.8,0,36.2,3.6,51.2,10v-159l-256,42.7v234.3
			C268.8,478.3,223.8,512,166.4,512z M268.8,98.5V149l256-42.7V55.8L268.8,98.5z"/>
	</g>
</g>
<line class="st1" x1="120" y1="30" x2="608" y2="483.1"/>
</svg>
