<svg width="10" height="17" viewBox="0 0 10 17" fill="none" xmlns="http://www.w3.org/2000/svg">
<path d="M3.2559 11.5107V11.3168C3.26088 10.4169 3.34539 9.70099 3.50946 9.16903C3.67849 8.63707 3.91713 8.20952 4.22536 7.88636C4.5336 7.55824 4.90896 7.25746 5.35143 6.98402C5.6547 6.7951 5.92565 6.58878 6.16428 6.36506C6.40789 6.13636 6.5993 5.88281 6.7385 5.6044C6.87771 5.32102 6.94731 5.00533 6.94731 4.65731C6.94731 4.26456 6.85534 3.92401 6.67139 3.63565C6.48744 3.3473 6.23886 3.12358 5.92565 2.96449C5.61741 2.8054 5.27188 2.72585 4.88907 2.72585C4.53609 2.72585 4.20051 2.80291 3.88232 2.95703C3.56911 3.10618 3.30811 3.33487 3.0993 3.64311C2.89546 3.94638 2.78112 4.33168 2.75626 4.79901H0.101429C0.126287 3.8544 0.354981 3.06392 0.787509 2.42756C1.22501 1.79119 1.80171 1.31392 2.51762 0.995738C3.2385 0.677556 4.03396 0.518465 4.90399 0.518465C5.85356 0.518465 6.68879 0.685014 7.40967 1.01811C8.13552 1.35121 8.6998 1.82599 9.1025 2.44247C9.51017 3.05398 9.714 3.77983 9.714 4.62003C9.714 5.18679 9.62203 5.69389 9.43808 6.14133C9.2591 6.58878 9.00306 6.98651 8.66997 7.33452C8.33687 7.68253 7.94163 7.99325 7.48424 8.26669C7.08154 8.51527 6.75093 8.77379 6.49241 9.04226C6.23886 9.31072 6.04994 9.62642 5.92565 9.98935C5.80633 10.3473 5.74419 10.7898 5.73921 11.3168V11.5107H3.2559ZM4.55349 16.1641C4.10605 16.1641 3.72075 16.005 3.39759 15.6868C3.07444 15.3686 2.91286 14.9808 2.91286 14.5234C2.91286 14.076 3.07444 13.6932 3.39759 13.375C3.72075 13.0568 4.10605 12.8977 4.55349 12.8977C4.99596 12.8977 5.37877 13.0568 5.70193 13.375C6.03005 13.6932 6.19411 14.076 6.19411 14.5234C6.19411 14.8267 6.11705 15.1026 5.96294 15.3512C5.81379 15.5998 5.61492 15.7987 5.36634 15.9478C5.12274 16.092 4.85178 16.1641 4.55349 16.1641Z" fill="white"/>
</svg>
