<?xml version="1.0" encoding="utf-8"?>
<!-- Generator: Adobe Illustrator 26.0.1, SVG Export Plug-In . SVG Version: 6.00 Build 0)  -->
<svg version="1.1" id="Layer_1" xmlns="http://www.w3.org/2000/svg" xmlns:xlink="http://www.w3.org/1999/xlink" x="0px" y="0px"
	 viewBox="0 0 640 512" style="enable-background:new 0 0 640 512;" xml:space="preserve">
<style type="text/css">
	.st0{fill:#FFFFFF;}
</style>
<path class="st0" d="M569.8,339c-7.2,0-14.4-2.5-19.8-7.4l-50.3-45l-50.3,45c-11,9.8-28.7,9.8-39.7,0c-11-9.8-11-25.7,0-35.5
	l50.3-45l-50.3-45c-11-9.8-11-25.7,0-35.5c11-9.8,28.7-9.8,39.7,0l50.3,45l50.3-45c11-9.8,28.7-9.8,39.7,0s11,25.7,0,35.5l-50.3,45
	l50.3,45c11,9.8,11,25.7,0,35.5C584.2,336.6,577,339,569.8,339z M301.1,34.8C312.6,40,320,51.4,320,64v384c0,12.6-7.4,24-18.9,29.2
	s-25,3.1-34.4-5.3L131.8,352H64c-35.3,0-64-28.7-64-64v-64c0-35.3,28.7-64,64-64h67.8L266.7,40.1C276.1,31.7,289.6,29.7,301.1,34.8z
	"/>
</svg>
